<svg width="21" height="20" viewBox="0 0 21 20" fill="none" xmlns="http://www.w3.org/2000/svg">
<path d="M10.7864 17.9271C6.28366 17.9271 2.63346 14.277 2.63346 9.77419C2.63346 5.27145 6.28366 1.62125 10.7864 1.62125C15.2891 1.62125 18.9393 5.27145 18.9393 9.77419C18.9393 14.277 15.2891 17.9271 10.7864 17.9271ZM10.7864 19.0918C15.9324 19.0918 20.104 14.9202 20.104 9.77419C20.104 4.62819 15.9324 0.456543 10.7864 0.456543C5.6404 0.456543 1.46875 4.62819 1.46875 9.77419C1.46875 14.9202 5.6404 19.0918 10.7864 19.0918Z" fill="#333333"/>
<path d="M14.247 6.24486C14.2387 6.2531 14.2311 6.26182 14.2238 6.27099L10.1795 11.4244L7.74121 8.98606C7.40007 8.64492 6.84699 8.64492 6.50586 8.98606C6.16471 9.3272 6.16471 9.88028 6.50586 10.2214L9.58818 13.3037C9.92932 13.6449 10.4824 13.6449 10.8235 13.3037C10.8311 13.2962 10.8383 13.2881 10.845 13.2797L15.4948 7.46757C15.8234 7.12555 15.8194 6.58181 15.4824 6.24486C15.1413 5.90373 14.5882 5.90373 14.247 6.24486Z" fill="#333333"/>
</svg>
