<svg width="21" height="20" viewBox="0 0 21 20" fill="none" xmlns="http://www.w3.org/2000/svg">
<path d="M3.83263 8.33323L3.24346 8.92239L2.6543 8.33323L3.24346 7.74406L3.83263 8.33323ZM17.9993 14.9999C17.9993 15.2209 17.9115 15.4329 17.7552 15.5891C17.5989 15.7454 17.387 15.8332 17.166 15.8332C16.9449 15.8332 16.733 15.7454 16.5767 15.5891C16.4204 15.4329 16.3326 15.2209 16.3326 14.9999H17.9993ZM7.41013 13.0891L3.24346 8.92239L4.4218 7.74406L8.58846 11.9107L7.41013 13.0891ZM3.24346 7.74406L7.41013 3.57739L8.58846 4.75573L4.4218 8.92239L3.24346 7.74406ZM3.83263 7.49989H12.166V9.16656H3.83263V7.49989ZM17.9993 13.3332V14.9999H16.3326V13.3332H17.9993ZM12.166 7.49989C13.7131 7.49989 15.1968 8.11447 16.2908 9.20844C17.3847 10.3024 17.9993 11.7861 17.9993 13.3332H16.3326C16.3326 12.2282 15.8936 11.1683 15.1122 10.3869C14.3308 9.60555 13.271 9.16656 12.166 9.16656V7.49989Z" fill="#5A4D8C"/>
</svg>
