<svg width="21" height="20" viewBox="0 0 21 20" fill="none" xmlns="http://www.w3.org/2000/svg">
<path d="M15.5 19H5.5C4.96957 19 4.46086 18.7893 4.08579 18.4142C3.71071 18.0391 3.5 17.5304 3.5 17V8L10.5 1L17.5 8V17C17.5 17.5304 17.2893 18.0391 16.9142 18.4142C16.5391 18.7893 16.0304 19 15.5 19Z" fill="white"/>
<path d="M18.5006 8.00003C18.5006 7.73481 18.3952 7.48046 18.2077 7.29292C18.0201 7.10539 17.7658 7.00003 17.5006 7.00003C17.2354 7.00003 16.981 7.10539 16.7935 7.29292C16.6059 7.48046 16.5006 7.73481 16.5006 8.00003H18.5006ZM4.50057 8.00003C4.50057 7.73481 4.39521 7.48046 4.20768 7.29292C4.02014 7.10539 3.76579 7.00003 3.50057 7.00003C3.23535 7.00003 2.981 7.10539 2.79346 7.29292C2.60593 7.48046 2.50057 7.73481 2.50057 8.00003H4.50057ZM18.7936 10.707C18.9822 10.8892 19.2348 10.99 19.497 10.9877C19.7592 10.9854 20.01 10.8803 20.1954 10.6948C20.3808 10.5094 20.486 10.2586 20.4882 9.99643C20.4905 9.73423 20.3897 9.48163 20.2076 9.29303L18.7936 10.707ZM10.5006 1.00003L11.2076 0.293031C11.02 0.105559 10.7657 0.000244141 10.5006 0.000244141C10.2354 0.000244141 9.9811 0.105559 9.79357 0.293031L10.5006 1.00003ZM0.793569 9.29303C0.698059 9.38528 0.621877 9.49562 0.569468 9.61763C0.517059 9.73963 0.489473 9.87085 0.488319 10.0036C0.487165 10.1364 0.512467 10.2681 0.562748 10.391C0.613029 10.5139 0.687282 10.6255 0.781175 10.7194C0.875067 10.8133 0.986719 10.8876 1.10962 10.9379C1.23251 10.9881 1.36419 11.0134 1.49697 11.0123C1.62975 11.0111 1.76097 10.9835 1.88297 10.9311C2.00498 10.8787 2.11532 10.8025 2.20757 10.707L0.793569 9.29303ZM5.50057 20H15.5006V18H5.50057V20ZM18.5006 17V8.00003H16.5006V17H18.5006ZM4.50057 17V8.00003H2.50057V17H4.50057ZM20.2076 9.29303L11.2076 0.293031L9.79357 1.70703L18.7936 10.707L20.2076 9.29303ZM9.79357 0.293031L0.793569 9.29303L2.20757 10.707L11.2076 1.70703L9.79357 0.293031ZM15.5006 20C16.2962 20 17.0593 19.684 17.6219 19.1214C18.1845 18.5587 18.5006 17.7957 18.5006 17H16.5006C16.5006 17.2652 16.3952 17.5196 16.2077 17.7071C16.0201 17.8947 15.7658 18 15.5006 18V20ZM5.50057 18C5.23535 18 4.981 17.8947 4.79346 17.7071C4.60593 17.5196 4.50057 17.2652 4.50057 17H2.50057C2.50057 17.7957 2.81664 18.5587 3.37925 19.1214C3.94186 19.684 4.70492 20 5.50057 20V18Z" fill="#5A4D8C"/>
</svg>
