<svg width="32" height="32" viewBox="0 0 32 32" fill="none" xmlns="http://www.w3.org/2000/svg">
<path d="M15.9987 5.33398C10.1187 5.33398 5.33203 10.1207 5.33203 16.0007C5.33203 21.8807 10.1187 26.6673 15.9987 26.6673C21.8787 26.6673 26.6654 21.8807 26.6654 16.0007C26.6654 10.1207 21.8787 5.33398 15.9987 5.33398ZM17.332 22.6673H14.6654V14.6673H17.332V22.6673ZM17.332 12.0007H14.6654V9.33398H17.332V12.0007Z" fill="white"/>
<path d="M14.668 9.33268H17.3346V11.9993H14.668V9.33268ZM14.668 14.666H17.3346V22.666H14.668V14.666ZM16.0013 2.66602C8.6413 2.66602 2.66797 8.63935 2.66797 15.9993C2.66797 23.3593 8.6413 29.3327 16.0013 29.3327C23.3613 29.3327 29.3346 23.3593 29.3346 15.9993C29.3346 8.63935 23.3613 2.66602 16.0013 2.66602ZM16.0013 26.666C10.1213 26.666 5.33464 21.8793 5.33464 15.9993C5.33464 10.1193 10.1213 5.33268 16.0013 5.33268C21.8813 5.33268 26.668 10.1193 26.668 15.9993C26.668 21.8793 21.8813 26.666 16.0013 26.666Z" fill="#5A4D8C"/>
</svg>
